<svg width="33" height="30" viewBox="0 0 33 30" version="1.1" xmlns="http://www.w3.org/2000/svg" xmlns:xlink="http://www.w3.org/1999/xlink">
<title>Union</title>
<desc>Created using Figma</desc>
<g id="Canvas" transform="translate(1454 540)">
<g id="Union">
<use xlink:href="#path0_fill" transform="translate(-1454 -539.305)" fill="#FFFFFF"/>
</g>
</g>
<defs>
<path id="path0_fill" fill-rule="evenodd" d="M 13.4564 19.1635L 30.0924 19.1635C 30.9822 19.1635 31.7031 19.8844 31.7031 20.7742C 31.7031 21.6639 30.9822 22.3849 30.0924 22.3849L 11.1654 22.3849L 4.50549 3.22137L 1.61072 3.22137C 0.720947 3.22137 0 2.50043 0 1.61072C 0 0.720947 0.720947 0 1.61072 0L 6.79651 0L 13.4564 19.1635ZM 12.922 5.52588L 31.9373 5.52588C 32.4366 5.52588 32.7195 5.9118 32.5699 6.38794L 29.9484 15.4078C 29.8015 15.8833 29.2777 16.2686 28.7797 16.2686L 16.3129 16.2686C 15.8148 16.2686 15.2904 15.8833 15.1422 15.4078L 12.134 6.59601C 11.9504 6.00458 12.3029 5.52588 12.922 5.52588ZM 17.4863 26.42C 17.4863 27.991 16.2129 29.2645 14.6418 29.2645C 13.0709 29.2645 11.7974 27.991 11.7974 26.42C 11.7974 24.849 13.0709 23.5755 14.6418 23.5755C 16.2129 23.5755 17.4863 24.849 17.4863 26.42ZM 26.6774 29.3C 28.2484 29.3 29.5219 28.0264 29.5219 26.4554C 29.5219 24.8845 28.2484 23.611 26.6774 23.611C 25.1064 23.611 23.8329 24.8845 23.8329 26.4554C 23.8329 28.0264 25.1064 29.3 26.6774 29.3Z"/>
</defs>
</svg>
