<svg width="19" height="17" viewBox="0 0 19 17" version="1.1" xmlns="http://www.w3.org/2000/svg" xmlns:xlink="http://www.w3.org/1999/xlink">
    <title>Union</title>
    <desc>Created using Figma</desc>
    <g id="Canvas" transform="translate(-257 382)">
        <g id="Union">
            <use xlink:href="#path0_fill" transform="translate(257 -382)" fill="#FFFFFF" fill-opacity="0.5"/>
        </g>
    </g>
    <defs>
        <path id="path0_fill" fill-rule="evenodd" d="M 7.67961 10.9366L 17.1738 10.9366C 17.6816 10.9366 18.093 11.3481 18.093 11.8559C 18.093 12.3636 17.6816 12.7751 17.1738 12.7751L 6.3721 12.7751L 2.57127 1.83847L 0.919235 1.83847C 0.411453 1.83847 0 1.427 0 0.91922C 0 0.411438 0.411453 0 0.919235 0L 3.87878 0L 7.67961 10.9366ZM 7.37405 3.15369L 18.2261 3.15369C 18.5111 3.15369 18.6725 3.37393 18.5872 3.64566L 17.091 8.79333C 17.0072 9.0647 16.7083 9.28458 16.4241 9.28458L 9.30922 9.28458C 9.02499 9.28458 8.72569 9.0647 8.64113 8.79333L 6.92438 3.76443C 6.81958 3.42688 7.02071 3.15369 7.37405 3.15369ZM 9.97881 15.0779C 9.97881 15.9745 9.252 16.7013 8.35545 16.7013C 7.45889 16.7013 6.73209 15.9745 6.73209 15.0779C 6.73209 14.1814 7.45889 13.4546 8.35545 13.4546C 9.252 13.4546 9.97881 14.1814 9.97881 15.0779ZM 15.2246 16.7216C 16.1212 16.7216 16.848 15.9948 16.848 15.0982C 16.848 14.2016 16.1212 13.4748 15.2246 13.4748C 14.3281 13.4748 13.6013 14.2016 13.6013 15.0982C 13.6013 15.9948 14.3281 16.7216 15.2246 16.7216Z"/>
    </defs>
</svg>
